<?xml version="1.0" standalone="no"?>
<!DOCTYPE svg PUBLIC "-//W3C//DTD SVG 20010904//EN"
 "http://www.w3.org/TR/2001/REC-SVG-20010904/DTD/svg10.dtd">
<svg version="1.0" xmlns="http://www.w3.org/2000/svg"
 width="224.000000pt" height="224.000000pt" viewBox="0 0 224.000000 224.000000"
 preserveAspectRatio="xMidYMid meet">

<g transform="translate(0.000000,224.000000) scale(0.100000,-0.100000)"
fill="#000000" stroke="none">
<path d="M778 1684 c-15 -8 -31 -27 -35 -42 -4 -15 -7 -140 -7 -279 -1 -240 0
-253 20 -280 20 -28 350 -293 364 -293 4 0 46 29 93 65 77 58 89 64 112 55 24
-9 26 -14 23 -57 l-3 -48 -50 0 c-44 0 -50 3 -53 23 -2 12 -6 22 -9 22 -4 0
-30 -18 -60 -40 l-53 -41 -60 46 c-58 45 -60 45 -60 22 0 -23 -4 -25 -51 -29
-28 -1 -53 -1 -55 1 -2 2 -4 24 -4 48 0 35 4 45 21 51 18 7 17 11 -23 42 -40
32 -46 34 -106 31 l-64 -2 3 68 c1 37 2 87 1 111 l-2 42 -50 0 c-37 0 -55 -5
-70 -20 -20 -20 -21 -30 -18 -311 l3 -291 24 -19 c22 -18 46 -19 517 -19 481
0 495 1 514 20 19 19 20 33 20 310 0 277 -1 291 -20 310 -15 15 -33 20 -76 20
l-57 0 8 -111 7 -110 -60 2 c-54 2 -63 -1 -101 -31 -22 -18 -44 -31 -47 -28
-3 3 34 34 81 68 48 34 91 73 96 87 5 13 9 150 9 303 l0 279 -26 20 c-26 20
-38 21 -348 21 -264 -1 -326 -3 -348 -16z m462 -104 c0 -19 -7 -20 -115 -20
-108 0 -115 1 -115 20 0 19 7 20 115 20 108 0 115 -1 115 -20z m110 -85 l0
-25 -235 0 c-221 0 -235 1 -235 18 0 10 3 22 7 25 3 4 109 7 235 7 l228 0 0
-25z m-149 -80 c59 -31 76 -93 40 -151 -34 -57 -116 -79 -185 -50 -77 32 -103
127 -48 178 47 45 131 55 193 23z m-51 -249 c0 -2 -9 -24 -20 -50 -18 -40 -25
-46 -52 -46 -20 0 -29 4 -25 13 2 6 10 29 18 50 11 33 17 37 46 37 18 0 33 -2
33 -4z m-330 -305 l0 -49 -46 -4 c-25 -2 -47 -1 -50 1 -2 2 -4 26 -4 53 l0 48
50 0 50 0 0 -49z m698 -3 l-3 -51 -45 0 -45 0 -3 51 -3 52 51 0 51 0 -3 -52z
m-106 -156 c5 -5 8 -22 6 -38 l-3 -29 -305 0 -305 0 -3 28 c-2 16 1 34 6 40
12 15 590 13 604 -1z"/>
<path d="M1082 1385 c-55 -24 -67 -71 -27 -110 53 -54 167 -14 150 53 -8 35
-24 50 -61 61 -21 6 -41 4 -62 -4z"/>
</g>
</svg>
