<?xml version="1.0" standalone="no"?>
<!DOCTYPE svg PUBLIC "-//W3C//DTD SVG 20010904//EN"
 "http://www.w3.org/TR/2001/REC-SVG-20010904/DTD/svg10.dtd">
<svg version="1.0" xmlns="http://www.w3.org/2000/svg"
 width="224.000000pt" height="224.000000pt" viewBox="0 0 224.000000 224.000000"
 preserveAspectRatio="xMidYMid meet">

<g transform="translate(0.000000,224.000000) scale(0.100000,-0.100000)"
fill="#000000" stroke="none">
<path d="M1006 1690 c-146 -52 -245 -168 -262 -309 -4 -32 -14 -63 -23 -72
-29 -27 -46 -96 -33 -131 10 -27 8 -34 -25 -79 -64 -89 -98 -219 -73 -283 13
-35 25 -33 68 10 33 33 37 35 47 19 108 -186 221 -255 415 -255 183 0 324 82
401 233 11 20 21 37 23 37 2 0 20 -16 39 -35 42 -42 54 -43 67 -9 24 61 -3
173 -64 268 -27 42 -31 56 -24 76 15 40 3 106 -26 145 -15 20 -36 68 -47 108
-36 128 -100 205 -217 260 -87 40 -182 46 -266 17z m64 -190 c40 -40 18 -160
-31 -173 -15 -4 -30 2 -50 23 -23 23 -29 37 -29 73 0 81 62 125 110 77z m189
-2 c50 -53 27 -160 -35 -166 -42 -4 -66 33 -66 100 0 80 55 116 101 66z m44
-226 c32 -11 61 -23 65 -26 10 -10 -31 -40 -123 -88 -102 -53 -144 -55 -234
-9 -77 39 -141 81 -141 91 0 10 43 27 115 45 81 20 240 13 318 -13z m-511 -67
c74 -82 207 -122 372 -112 151 9 273 66 327 154 21 33 23 34 36 17 19 -26 16
-82 -8 -120 -24 -40 -118 -104 -197 -135 -47 -19 -77 -23 -167 -23 -128 0
-205 17 -312 69 -56 28 -78 45 -102 82 -34 51 -36 64 -19 114 10 30 12 31 22
14 6 -10 28 -37 48 -60z m24 -255 c-3 -43 -2 -89 3 -103 11 -28 74 -57 126
-57 55 0 75 27 75 104 l0 63 118 -1 c126 -1 186 13 270 61 30 17 47 22 54 15
6 -6 9 -46 6 -99 -5 -108 -33 -169 -106 -234 -87 -78 -218 -107 -342 -75 -104
27 -166 75 -214 166 -29 56 -38 96 -37 167 1 79 7 96 33 82 19 -10 20 -17 14
-89z m112 39 l63 -21 -3 -72 c-3 -71 -3 -71 -33 -74 -44 -5 -103 15 -110 39
-8 23 4 149 14 149 4 0 35 -9 69 -21z"/>
<path d="M1024 1456 c-11 -29 1 -61 23 -64 17 -3 24 3 29 22 10 42 -38 80 -52
42z m46 -14 c0 -13 -12 -22 -22 -16 -10 6 -1 24 13 24 5 0 9 -4 9 -8z"/>
<path d="M1181 1448 c-11 -30 -1 -46 14 -25 15 21 25 22 25 2 0 -8 5 -15 10
-15 14 0 13 33 -2 48 -19 19 -38 14 -47 -10z"/>
<path d="M1250 1210 c-56 -23 -177 -26 -245 -5 -27 8 -51 13 -52 11 -9 -9 139
-76 166 -76 31 0 164 60 176 80 3 5 5 10 3 9 -2 -1 -23 -9 -48 -19z"/>
<path d="M726 680 c-42 -47 -44 -59 -13 -88 57 -54 192 -76 290 -48 59 17 76
36 32 36 -59 0 -144 41 -246 120 l-27 20 -36 -40z"/>
<path d="M1435 684 c-51 -45 -149 -93 -211 -103 l-49 -8 39 -17 c118 -52 325
-11 334 66 2 18 -7 37 -28 62 -18 20 -35 36 -39 36 -3 -1 -24 -17 -46 -36z"/>
</g>
</svg>
